<svg width="194" height="31" viewBox="0 0 194 31" fill="none" xmlns="http://www.w3.org/2000/svg">
<path d="M15.8903 32C24.6663 32 31.7807 24.8366 31.7807 16C31.7807 7.16344 24.6663 0 15.8903 0C7.11435 0 0 7.16344 0 16C0 24.8366 7.11435 32 15.8903 32Z" fill="#D1AC75"/>
<path d="M15.8909 27.7263C22.0546 27.7263 27.0513 22.6951 27.0513 16.4889C27.0513 10.2826 22.0546 5.25146 15.8909 5.25146C9.72715 5.25146 4.73047 10.2826 4.73047 16.4889C4.73047 22.6951 9.72715 27.7263 15.8909 27.7263Z" fill="#EFE3C7"/>
<path d="M9.65283 16.7624C9.65283 20.3091 15.8046 27.5969 19.3342 27.5969C30.1517 27.5969 20.6417 21.7767 21.7063 19.712C22.1636 18.8271 22.4137 17.8271 22.4137 16.7624C22.4137 13.2156 19.5557 10.3379 16.0333 10.3379C12.5037 10.3451 9.65283 13.2156 9.65283 16.7624Z" fill="white"/>
<path d="M47.5432 8.58069C48.7436 8.58069 49.751 8.99076 50.5727 9.80371C51.3943 10.6167 51.8016 11.6167 51.8016 12.7965C51.8016 13.9764 51.3943 14.9764 50.5727 15.7893C49.751 16.6023 48.7436 17.0123 47.5432 17.0123H45.3497V21.1418H42.8918V8.58069H47.5432V8.58069ZM47.5432 14.6958C48.0648 14.6958 48.5006 14.5159 48.8436 14.149C49.1865 13.7821 49.358 13.3361 49.358 12.7965C49.358 12.2498 49.1865 11.7893 48.8436 11.4296C48.5006 11.0699 48.0648 10.89 47.5432 10.89H45.3497V14.6958H47.5432Z" fill="#0F0E0E"/>
<path d="M60.5466 20.0196C59.632 20.9333 58.5174 21.3938 57.1956 21.3938C55.8738 21.3938 54.7663 20.9333 53.8517 20.0196C52.9443 19.106 52.4871 17.9837 52.4871 16.6527C52.4871 15.3218 52.9443 14.2067 53.8517 13.2858C54.7592 12.3722 55.8738 11.9117 57.1956 11.9117C58.5174 11.9117 59.632 12.3722 60.5466 13.2858C61.4611 14.1995 61.9184 15.3218 61.9184 16.6527C61.9184 17.9837 61.4611 19.0988 60.5466 20.0196ZM55.4736 18.4297C55.9309 18.8974 56.5025 19.1276 57.1956 19.1276C57.8815 19.1276 58.4602 18.8974 58.9246 18.4297C59.3891 17.9621 59.6177 17.3722 59.6177 16.6527C59.6177 15.9333 59.3891 15.3434 58.9246 14.8758C58.4602 14.4081 57.8815 14.1779 57.1956 14.1779C56.5097 14.1779 55.9309 14.4081 55.4736 14.8758C55.0164 15.3434 54.7877 15.9333 54.7877 16.6527C54.7877 17.3722 55.0164 17.9621 55.4736 18.4297Z" fill="#0F0E0E"/>
<path d="M71.4644 18.9696H72.6434V23.5451H70.3998V21.1422H64.8768V23.5451H62.6333V18.9696H63.7193C64.2266 18.207 64.4838 17.1422 64.4838 15.7969V12.171H71.4716V18.9696H71.4644ZM66.1772 18.9696H69.2209V14.2502H66.7273V15.7897C66.7273 17.0631 66.5416 18.1207 66.1772 18.9696Z" fill="#0F0E0E"/>
<path d="M79.9881 12.171H82.2888V21.1422H79.9881V17.7322H76.4442V21.1422H74.1436V12.171H76.4442V15.5595H79.9881V12.171Z" fill="#0F0E0E"/>
<path d="M88.3906 15.0415C89.398 15.0415 90.2125 15.3221 90.8342 15.8761C91.4486 16.43 91.763 17.171 91.763 18.0919C91.763 19.0127 91.4558 19.7538 90.8342 20.3077C90.2197 20.8617 89.4052 21.1422 88.3906 21.1422H84.3608V12.171H86.6615V15.0415H88.3906V15.0415ZM88.4049 19.0919C88.7264 19.0919 88.9908 18.9984 89.198 18.8113C89.4052 18.6243 89.5123 18.3868 89.5123 18.0847C89.5123 17.7825 89.4052 17.5379 89.198 17.3509C88.9908 17.1566 88.7264 17.0631 88.4049 17.0631H86.6615V19.0919H88.4049ZM92.7347 12.171H95.0354V21.1422H92.7347V12.171Z" fill="#0F0E0E"/>
<path d="M99.0299 17.603C99.3371 18.7253 100.173 19.2865 101.545 19.2865C102.424 19.2865 103.088 18.9843 103.538 18.3872L105.389 19.4663C104.51 20.7469 103.217 21.3872 101.502 21.3872C100.03 21.3872 98.8441 20.9411 97.9582 20.0419C97.0651 19.1426 96.6221 18.0131 96.6221 16.6534C96.6221 15.3009 97.0651 14.1714 97.9439 13.2721C98.8227 12.3728 99.9516 11.9196 101.331 11.9196C102.638 11.9196 103.717 12.3728 104.567 13.2865C105.417 14.1929 105.839 15.3224 105.839 16.6606C105.839 16.9627 105.81 17.2793 105.753 17.6102H99.0299V17.603ZM98.9942 15.8116H103.538C103.41 15.2001 103.138 14.7469 102.731 14.4447C102.324 14.1426 101.852 13.9987 101.331 13.9987C100.716 13.9987 100.202 14.157 99.7944 14.4735C99.3943 14.7901 99.13 15.2361 98.9942 15.8116Z" fill="#0F0E0E"/>
<path d="M120.036 12.171V21.1422H117.735V14.3437H114.191V21.1422H111.891V12.171H120.036Z" fill="#0F0E0E"/>
<path d="M127.302 11.9196C128.502 11.9196 129.524 12.38 130.374 13.2937C131.225 14.2073 131.646 15.3296 131.646 16.6606C131.646 17.9915 131.225 19.1066 130.374 20.0275C129.524 20.9411 128.502 21.4016 127.302 21.4016C126.052 21.4016 125.094 20.9627 124.415 20.0922V24.7397H122.115V12.1785H124.415V13.2361C125.094 12.3512 126.052 11.9196 127.302 11.9196ZM125.108 18.4735C125.573 18.9483 126.159 19.1785 126.873 19.1785C127.588 19.1785 128.174 18.9411 128.645 18.4735C129.117 17.9987 129.345 17.3944 129.345 16.6534C129.345 15.9124 129.11 15.308 128.645 14.8332C128.174 14.3584 127.588 14.121 126.873 14.121C126.159 14.121 125.573 14.3584 125.108 14.8332C124.644 15.308 124.415 15.9124 124.415 16.6534C124.415 17.3944 124.644 17.9987 125.108 18.4735Z" fill="#0F0E0E"/>
<path d="M140.799 20.0196C139.885 20.9333 138.77 21.3938 137.448 21.3938C136.126 21.3938 135.019 20.9333 134.104 20.0196C133.197 19.106 132.74 17.9837 132.74 16.6527C132.74 15.3218 133.197 14.2067 134.104 13.2858C135.012 12.3722 136.126 11.9117 137.448 11.9117C138.77 11.9117 139.885 12.3722 140.799 13.2858C141.714 14.1995 142.171 15.3218 142.171 16.6527C142.171 17.9837 141.707 19.0988 140.799 20.0196ZM135.726 18.4297C136.184 18.8974 136.755 19.1276 137.448 19.1276C138.134 19.1276 138.713 18.8974 139.177 18.4297C139.642 17.9621 139.87 17.3722 139.87 16.6527C139.87 15.9333 139.642 15.3434 139.177 14.8758C138.713 14.4081 138.134 14.1779 137.448 14.1779C136.762 14.1779 136.184 14.4081 135.726 14.8758C135.269 15.3434 135.04 15.9333 135.04 16.6527C135.04 17.3722 135.269 17.9621 135.726 18.4297Z" fill="#0F0E0E"/>
<path d="M147.966 21.3869C146.623 21.3869 145.501 20.9337 144.608 20.02C143.707 19.1135 143.264 17.9841 143.264 16.6459C143.264 15.3078 143.715 14.1855 144.608 13.2718C145.508 12.3653 146.623 11.9049 147.966 11.9049C148.83 11.9049 149.623 12.1135 150.338 12.5308C151.052 12.9481 151.588 13.5092 151.96 14.2143L149.981 15.3797C149.802 15.0056 149.531 14.7179 149.173 14.502C148.809 14.2862 148.402 14.1783 147.951 14.1783C147.266 14.1783 146.694 14.4085 146.244 14.8689C145.794 15.3294 145.565 15.9193 145.565 16.6387C145.565 17.3438 145.794 17.9265 146.244 18.3869C146.694 18.8474 147.266 19.0776 147.951 19.0776C148.416 19.0776 148.83 18.9697 149.188 18.761C149.552 18.5524 149.823 18.2646 149.995 17.8905L151.988 19.0416C151.595 19.7466 151.045 20.315 150.331 20.7394C149.623 21.1783 148.83 21.3869 147.966 21.3869Z" fill="#0F0E0E"/>
<path d="M160.583 12.171V14.394H157.804V21.1422H155.503V14.394H152.688V12.171H160.583Z" fill="#0F0E0E"/>
<path d="M169.329 20.0196C168.414 20.9333 167.299 21.3938 165.978 21.3938C164.656 21.3938 163.548 20.9333 162.634 20.0196C161.726 19.106 161.269 17.9837 161.269 16.6527C161.269 15.3218 161.726 14.2067 162.634 13.2858C163.541 12.3722 164.656 11.9117 165.978 11.9117C167.299 11.9117 168.414 12.3722 169.329 13.2858C170.243 14.1995 170.7 15.3218 170.7 16.6527C170.7 17.9837 170.243 19.0988 169.329 20.0196ZM164.256 18.4297C164.713 18.8974 165.285 19.1276 165.978 19.1276C166.663 19.1276 167.242 18.8974 167.707 18.4297C168.171 17.9621 168.4 17.3722 168.4 16.6527C168.4 15.9333 168.171 15.3434 167.707 14.8758C167.242 14.4081 166.663 14.1779 165.978 14.1779C165.292 14.1779 164.713 14.4081 164.256 14.8758C163.798 15.3434 163.57 15.9333 163.57 16.6527C163.57 17.3722 163.798 17.9621 164.256 18.4297Z" fill="#0F0E0E"/>
<path d="M177.403 11.9196C178.603 11.9196 179.625 12.38 180.475 13.2937C181.326 14.2073 181.747 15.3296 181.747 16.6606C181.747 17.9915 181.326 19.1066 180.475 20.0275C179.625 20.9411 178.603 21.4016 177.403 21.4016C176.153 21.4016 175.195 20.9627 174.516 20.0922V24.7397H172.216V12.1785H174.516V13.2361C175.188 12.3512 176.153 11.9196 177.403 11.9196ZM175.21 18.4735C175.674 18.9483 176.26 19.1785 176.974 19.1785C177.689 19.1785 178.275 18.9411 178.746 18.4735C179.218 17.9987 179.446 17.3944 179.446 16.6534C179.446 15.9124 179.211 15.308 178.746 14.8332C178.275 14.3584 177.689 14.121 176.974 14.121C176.26 14.121 175.674 14.3584 175.21 14.8332C174.745 15.308 174.516 15.9124 174.516 16.6534C174.516 17.3944 174.745 17.9987 175.21 18.4735Z" fill="#0F0E0E"/>
<path d="M187.355 15.0415C188.363 15.0415 189.177 15.3221 189.799 15.8761C190.413 16.43 190.728 17.171 190.728 18.0919C190.728 19.0127 190.42 19.7538 189.799 20.3077C189.184 20.8617 188.37 21.1422 187.355 21.1422H183.325V12.171H185.626V15.0415H187.355V15.0415ZM187.369 19.0919C187.691 19.0919 187.955 18.9984 188.163 18.8113C188.37 18.6243 188.477 18.3868 188.477 18.0847C188.477 17.7825 188.37 17.5379 188.163 17.3509C187.955 17.1566 187.691 17.0631 187.369 17.0631H185.626V19.0919H187.369ZM191.699 12.171H194V21.1422H191.699V12.171Z" fill="#0F0E0E"/>
<path d="M11.3176 30.568L16.3476 31.9925L13.2967 30.5176L0 25.3594C0 28.6759 2.41499 31.9925 6.359 31.9925C7.73797 31.9997 10.2744 31.4097 11.3176 30.568Z" fill="url(#paint0_linear_7_1413)"/>
<path d="M31.7241 14.6546C31.7241 14.6546 23.4859 14.6834 19.2704 23.2805C24.2147 22.3597 24.3791 25.705 24.3791 25.705C24.3791 25.705 22.6857 25.0503 21.0638 26.0287C19.4419 27.0071 16.4982 27.6402 14.0403 22.6906C11.5825 17.7409 7.1669 10.3596 1.62957 8.94238C0.53639 11.187 -0.0566382 13.7266 0.00766625 16.41C0.222015 24.892 7.10974 31.8057 15.5336 31.9928C24.4719 32.187 31.7812 24.9496 31.7812 15.9927C31.7884 15.5467 31.7598 15.1007 31.7241 14.6546Z" fill="#005399"/>
<defs>
<linearGradient id="paint0_linear_7_1413" x1="33.1344" y1="28.681" x2="0.337385" y2="28.681" gradientUnits="userSpaceOnUse">
<stop stop-color="#00A1E4"/>
<stop offset="0.6905" stop-color="#00539A"/>
</linearGradient>
</defs>
</svg>
