<svg width="14" height="18" viewBox="0 0 14 18" fill="none" xmlns="http://www.w3.org/2000/svg">
<path fill-rule="evenodd" clip-rule="evenodd" d="M2.7585 2.7675C3.31404 2.20779 3.97479 1.76347 4.70272 1.46013C5.43066 1.15679 6.2114 1.00041 7 1C8.59 1 10.116 1.635 11.2415 2.7675C12.3687 3.90308 13.0009 5.43847 13 7.0385C13 9.8015 11.468 12.3025 9.872 14.149C9.19944 14.9234 8.47027 15.6467 7.6905 16.313C7.4075 16.555 7.1705 16.7445 7 16.876C6.83 16.7445 6.5925 16.555 6.3095 16.313C5.52974 15.6467 4.80057 14.9234 4.128 14.149C2.532 12.3025 1 9.8015 1 7.0385C1 5.436 1.633 3.9 2.7585 2.7675ZM6.712 17.9085L7 17.5L7.288 17.9085C7.20366 17.9678 7.10308 17.9996 7 17.9996C6.89692 17.9996 6.79635 17.9678 6.712 17.9085ZM6.712 17.9085L7 17.5L7.288 17.9085L7.29 17.9075L7.295 17.904L7.31 17.8925L7.369 17.85C7.419 17.813 7.492 17.759 7.584 17.688C7.768 17.547 8.029 17.3395 8.3405 17.073C9.15821 16.3741 9.92282 15.6153 10.628 14.803C12.282 12.89 14 10.1595 14 7.038C14 5.173 13.263 3.383 11.951 2.063C11.3025 1.4097 10.5312 0.891092 9.68154 0.537038C8.83184 0.182983 7.92051 0.000469168 7 0C6.07953 0.000403672 5.16822 0.182839 4.31853 0.536807C3.46883 0.890775 2.69753 1.40929 2.049 2.0625C0.735712 3.38552 -0.000881509 5.17434 7.91709e-07 7.0385C7.91709e-07 10.1595 1.718 12.89 3.372 14.803C4.07719 15.6153 4.8418 16.3741 5.6595 17.073C5.9715 17.3395 6.232 17.547 6.416 17.688C6.50625 17.7576 6.59742 17.8259 6.6895 17.893L6.7055 17.904L6.71 17.9075L6.712 17.9085ZM5 7C5 6.46957 5.21072 5.96086 5.58579 5.58579C5.96086 5.21071 6.46957 5 7 5C7.53044 5 8.03914 5.21071 8.41422 5.58579C8.78929 5.96086 9 6.46957 9 7C9 7.53043 8.78929 8.03914 8.41422 8.41421C8.03914 8.78929 7.53044 9 7 9C6.46957 9 5.96086 8.78929 5.58579 8.41421C5.21072 8.03914 5 7.53043 5 7ZM7 4C6.20435 4 5.44129 4.31607 4.87868 4.87868C4.31607 5.44129 4 6.20435 4 7C4 7.79565 4.31607 8.55871 4.87868 9.12132C5.44129 9.68393 6.20435 10 7 10C7.79565 10 8.55871 9.68393 9.12132 9.12132C9.68393 8.55871 10 7.79565 10 7C10 6.20435 9.68393 5.44129 9.12132 4.87868C8.55871 4.31607 7.79565 4 7 4Z" fill="#9EA6B6"/>
</svg>
